<svg id="visual" viewBox="0 0 960 540" width="960" height="540" xmlns="http://www.w3.org/2000/svg" xmlns:xlink="http://www.w3.org/1999/xlink" version="1.1"><rect x="0" y="0" width="960" height="540" fill="#ffffff"></rect><defs><linearGradient id="grad1_0" x1="43.8%" y1="0%" x2="100%" y2="100%"><stop offset="14.444444444444446%" stop-color="#ffffff" stop-opacity="1"></stop><stop offset="85.55555555555554%" stop-color="#ffffff" stop-opacity="1"></stop></linearGradient></defs><defs><linearGradient id="grad2_0" x1="0%" y1="0%" x2="56.3%" y2="100%"><stop offset="14.444444444444446%" stop-color="#ffffff" stop-opacity="1"></stop><stop offset="85.55555555555554%" stop-color="#ffffff" stop-opacity="1"></stop></linearGradient></defs><g transform="translate(960, 0)"><path d="M0 486C-42.8 432.7 -85.5 379.4 -151.2 364.9C-216.8 350.4 -305.4 374.7 -343.7 343.7C-381.9 312.6 -369.9 226.1 -385.3 159.6C-400.6 93.1 -443.3 46.5 -486 0L0 0Z" fill="#91dc4a"></path></g><g transform="translate(0, 540)"><path d="M0 -486C63 -467 125.9 -447.9 171.4 -413.9C217 -379.9 245 -330.9 294.2 -294.2C343.3 -257.4 413.5 -233 449 -186C484.5 -139 485.2 -69.5 486 0L0 0Z" fill="#91dc4a"></path></g></svg>