<svg id="visual" viewBox="0 0 960 540" width="960" height="540" xmlns="http://www.w3.org/2000/svg" xmlns:xlink="http://www.w3.org/1999/xlink" version="1.1"><path d="M0 98L107 93L213 147L320 109L427 190L533 98L640 98L747 163L853 93L960 114L960 0L853 0L747 0L640 0L533 0L427 0L320 0L213 0L107 0L0 0Z" fill="#91dc4a"></path><path d="M0 158L107 168L213 195L320 185L427 260L533 152L640 158L747 239L853 136L960 168L960 112L853 91L747 161L640 96L533 96L427 188L320 107L213 145L107 91L0 96Z" fill="#6ab32a"></path><path d="M0 228L107 206L213 255L320 244L427 320L533 222L640 212L747 298L853 228L960 212L960 166L853 134L747 237L640 156L533 150L427 258L320 183L213 193L107 166L0 156Z" fill="#438b00"></path><path d="M0 287L107 276L213 325L320 314L427 368L533 271L640 271L747 368L853 287L960 244L960 210L853 226L747 296L640 210L533 220L427 318L320 242L213 253L107 204L0 226Z" fill="#438b00"></path><path d="M0 465L107 433L213 471L320 444L427 482L533 422L640 455L747 482L853 438L960 471L960 242L853 285L747 366L640 269L533 269L427 366L320 312L213 323L107 274L0 285Z" fill="#6ab32a"></path><path d="M0 541L107 541L213 541L320 541L427 541L533 541L640 541L747 541L853 541L960 541L960 469L853 436L747 480L640 453L533 420L427 480L320 442L213 469L107 431L0 463Z" fill="#91dc4a"></path></svg>